# xmcd CD database file
#
# Track frame offsets:
#	150
#	25400
#	43837
#
# Disc length: 920 seconds
#
# Revision: 0
# Processed by: cddbd v1.5.1PL0 Copyright (c) Steve Scherf et al.
# Submitted via: CDex 1.51
#
DISCID=21039603
DTITLE=TEAR☆DROP - TEAR☆DROP／心の扉
DYEAR=1999
DGENRE=Pop
TTITLE0=心の扉
TTITLE1=サクラチル
TTITLE2=心の扉 (instrumental)
EXTD=YEAR: 1999
EXTT0=
EXTT1=
EXTT2=
PLAYORDER=
